<svg viewBox="0 0 119.44 111.92" xmlns="http://www.w3.org/2000/svg"><path d="m18.89 96.08h16.37v4h-12.26v5h11.82v3.84h-11.82v4.93h12.26v4.06h-16.37zm27.5 8.32a4.11 4.11 0 0 0 -3.52 1.48l-.18-1.13h-3.39v13.43h3.7v-7.08a2.78 2.78 0 0 1 3-3.1 3 3 0 0 1 2.17.79l.22.18 1.61-3.14-.12-.12a5.16 5.16 0 0 0 -3.49-1.31zm18.37 1-1.48 1.88a5.78 5.78 0 0 1 1.3 3.85c0 .83-.19 3.53-2.47 4.85a4.55 4.55 0 0 1 2.42 4.28c0 3.6-2.7 6-6.73 6s-6.81-2.47-6.81-6v-.26h3.64v.23c0 1.46 1.36 2.56 3.16 2.56s3.06-1 3.06-2.56-1.54-2.37-3.06-2.37c-4.2 0-6.81-2.59-6.81-6.75a6.58 6.58 0 0 1 6.81-6.81 5.59 5.59 0 0 1 2.92.66l1.3-1.64zm-3.81 5.72a3.16 3.16 0 1 0 -6.3 0 3.16 3.16 0 1 0 6.3 0zm19.89.34a7 7 0 1 1 -7-7 6.77 6.77 0 0 1 6.99 7.01zm-3.69 0a3.44 3.44 0 0 0 -3.3-3.61 3.33 3.33 0 0 0 -3.3 3.61 3.31 3.31 0 1 0 6.59 0zm25.46-15.26v-.12h-5.13l-8.31 9.24v-9.24h-4.12v21.86h4.12v-9.68l9.15 9.68h5.09v-.25l-10.53-11zm23.26 15.3c0 4.87-3.66 6.43-8.18 6.43h-10.37v-21.85h10.37c4.31 0 7.53 1.94 7.53 6.34a4.45 4.45 0 0 1 -2.84 4.22 5.33 5.33 0 0 1 3.49 4.87zm-14.49-6.65h6.31c2.59 0 3.44-1.09 3.44-2.34 0-1-.81-2.69-3.44-2.69h-6.31zm10.4 6.62c0-2-2.4-3-4.09-3h-6.31v5.62h6.31c1.68.01 4.09-.55 4.09-2.61zm12.14-80.18c-.84-4.23-6.61-7.75-11.41-7.46-5.84.35-11 3.25-13.08 6.56a7.78 7.78 0 0 0 -2.43-.39h-22.59c1.82-1.92 3.15-3.22 5.35-3.37 4.54-.31 8.07-2.87 8.59-5.11a5.25 5.25 0 0 0 -3.19-6.52c-3.85-1.49-9.84-.62-13.16 2.85-4.25 4.44-6.08 10.47-5 14.28a9.18 9.18 0 0 0 -3 4.22l-6.6-4.71c.81-5.78 1.08-10.1-1.11-12.63a5.66 5.66 0 0 0 -4.48-1.89c-4.48 0-8.06 4.39-10 12.1h-3.15c.36-4.75.18-8.33-1.83-10.46a5.65 5.65 0 0 0 -4.56-1.7c-4.55.2-8 4.88-9.58 12.92a9.85 9.85 0 0 0 -5.69 6.12l-7.2 22.08v.07l-.29.88a9.49 9.49 0 0 0 -.29 1.39l-.25 1-4.25 18.89a2.29 2.29 0 0 0 2.19 2.79l49 .91h.09l47.8.88a2.3 2.3 0 0 0 .54-.07h.11a2.34 2.34 0 0 0 .48-.2h.05a2.33 2.33 0 0 0 .38-.29l.08-.08a2.31 2.31 0 0 0 .33-.42v-.06a2.32 2.32 0 0 0 .19-.44v-.1-.06q1.69-7.14 3.46-14.35c1.28-5.19 2.54-9.75 3.88-14.57.89-3.21 1.81-6.53 2.73-10a2.33 2.33 0 0 0 -1-2.55c-1.91-1.23-4.21-3.06-6.44-4.82-1.05-.84-2.12-1.68-3.18-2.48 2.89-.19 4.87-.33 6.69 1.13 3.54 2.86 7.92 3.45 9.77 2.09 2.21-1.6 2.5-4.15 2.05-6.43zm-56 6.89a5.71 5.71 0 0 1 5.08-3.68h24a2.43 2.43 0 0 1 2 .78 1.92 1.92 0 0 1 .21 1.69l-6.67 23.88a5.72 5.72 0 0 1 -5.12 3.68l-24.45-.92a2.43 2.43 0 0 1 -2-.78 1.88 1.88 0 0 1 -.23-1.63zm-11.21 21.62a10.16 10.16 0 0 0 -.27 1.33s0 .09 0 .14l-2.34 10.66-3.53-8.05a2.27 2.27 0 0 0 -.43-.64 8.17 8.17 0 0 0 .86-1.94l6.85-23.57 4.68 3.37zm-4.9-37.8a1.1 1.1 0 0 1 .81.21c.79.91.54 4.29.18 7.18a8.5 8.5 0 0 0 -1.52-.14h-4.45c1.44-4.98 3.49-7.25 4.98-7.25zm-19.33-.06a1.09 1.09 0 0 1 .81.17c.82.88.73 4.24.5 7.13h-5.95c1.23-4.93 3.16-7.24 4.64-7.33zm-19 38.53 7.46-23c.57-2 3.12-3.71 5.45-3.71h24.89a2.66 2.66 0 0 1 2.17.84 1.81 1.81 0 0 1 .19 1.61l-6.94 23.79c-.57 2-3.09 3.69-5.42 3.7l-25.41-.92a2.66 2.66 0 0 1 -2.17-.78 1.77 1.77 0 0 1 -.21-1.56zm-1 6.16a7.69 7.69 0 0 0 3.29.72l25.37.92h.08a10.56 10.56 0 0 0 5.52-1.64l5.66 12.83-42.6-.79zm44.9 12.86-.1-.23 2.53-11.75a7.35 7.35 0 0 0 3 .62l24.41.87h.08a10 10 0 0 0 5.3-1.6l7.21 12.82zm53.84-34.81c-.77 2.89-1.54 5.67-2.29 8.37-1.29 4.64-2.62 9.44-3.92 14.71-.71 2.88-1.39 5.74-2.07 8.6l-6.64-11.88a2.3 2.3 0 0 0 -.36-.47 8.31 8.31 0 0 0 .84-2l6.57-23.49 2.5 2c1.81 1.48 3.67 2.91 5.4 4.13zm-82.93 4.32a5.64 5.64 0 0 1 5.45-4.63 4 4 0 0 1 4.05 4.63 5.64 5.64 0 0 1 -5.45 4.63 4 4 0 0 1 -4.05-4.63zm46.07.87a5.64 5.64 0 0 1 5.45-4.63 4 4 0 0 1 4.05 4.64 5.64 5.64 0 0 1 -5.45 4.63 4 4 0 0 1 -4.05-4.61z" fill="#182042" transform="translate(-14.66 -14.35)"/></svg>